# xmcd
#
# Track frame offsets: 
#        150
#        19452
#        29582
#        41105
#        52300
#        65100
#        81237
#        99865
#        110260
#        129827
#        147717
#        161747
#        171587
#        192067
#
# Disc length: 2744 seconds
#
# Revision: 2
# Processed by: cddbd v1.5.2PL0 Copyright (c) Steve Scherf et al.
# Submitted via: ExactAudioCopy v0.99pb5
#
DISCID=d20ab60e
DTITLE=George "Harmonica" Smith - Now You Can Talk About Me
DYEAR=1998
DGENRE=Blues
TTITLE0=Blowing the Blues
TTITLE1=Yes, Baby
TTITLE2=Tight Dress
TTITLE3=Times Won't Be Hard Always
TTITLE4=Good Things
TTITLE5=Goin' Down Slow
TTITLE6=Last Chance
TTITLE7=Boogie'n With Geogre
TTITLE8=Bad Start
TTITLE9=Astatic Stomp
TTITLE10=I Left My Heart in San Francisco
TTITLE11=Sunbird
TTITLE12=Chicago City
TTITLE13=Peg O My Heart
EXTD=
EXTT0=
EXTT1=
EXTT2=
EXTT3=
EXTT4=
EXTT5=
EXTT6=
EXTT7=
EXTT8=
EXTT9=
EXTT10=
EXTT11=
EXTT12=
EXTT13=
PLAYORDER=
